<?xml version="1.0" encoding="UTF-8"?>
<svg class="icon-heart-outline" xmlns="http://www.w3.org/2000/svg" viewBox="0 0 117 117">
    <path d="m0,55.05v-27.55h6.84v27.55H0Zm6.84-27.55v-13.73h6.89v13.73h-6.89Zm0,41.28v-13.73h6.89v13.73h-6.89ZM13.73,13.77v-6.89h6.89v6.89h-6.89Zm0,61.9v-6.89h6.89v6.89h-6.89ZM20.62,6.89V0h27.5v6.89h-27.5Zm0,75.67v-6.89h6.89v6.89h-6.89Zm6.89,6.89v-6.89h6.89v6.89h-6.89Zm6.89,6.89v-6.89h6.89v6.89h-6.89Zm6.89,6.89v-6.89h6.84v6.89h-6.84Zm6.84-89.44v-6.89h6.89v6.89h-6.89Zm0,96.29v-6.84h6.89v6.84h-6.89Zm6.89-82.56v-13.73h6.89v13.73h-6.89Zm0,89.4v-6.84h6.89v6.84h-6.89Zm6.89-103.13v-6.89h6.89v6.89h-6.89Zm0,96.29v-6.84h6.89v6.84h-6.89Zm6.89-103.17V0h27.5v6.89h-27.5Zm0,96.33v-6.89h6.89v6.89h-6.89Zm6.89-6.89v-6.89h6.89v6.89h-6.89Zm6.89-6.89v-6.89h6.84v6.89h-6.84Zm6.84-6.89v-6.89h6.89v6.89h-6.89Zm6.89-68.78v-6.89h6.89v6.89h-6.89Zm0,61.9v-6.89h6.89v6.89h-6.89Zm6.89-48.17v-13.73h6.89v13.73h-6.89Zm0,41.28v-13.73h6.89v13.73h-6.89Zm6.89-13.73v-27.55h6.89v27.55h-6.89Z"/>
</svg>