<svg version="1.1" class="ma-logo" xmlns="http://www.w3.org/2000/svg" xmlns:xlink="http://www.w3.org/1999/xlink" x="0px" y="0px" viewBox="0 0 841.9 408.2" xml:space="preserve">
<g>
    <path d="M573.6,306l-35.9,102.2h-53L635.1,0h57l149.8,408.2h-53L753,306H573.6z M736.5,260.3L664.2,47.4H663l-72.4,212.9H736.5z"/>
</g>
<g>
    <path d="M204.1,306.1c0-12.7,0-38.3,0-51h-25.5c0-22.7,0-53.8,0-76.5h-25.5c0-22.7,0-53.8,0-76.5h-25.5c0-32,0-70.1,0-102
        C86.7,0,40.9,0,0,0v25.5c12.7,0,38.3,0,51,0c0,118.5,0,238.7,0,357.2c-12.7,0-38.3,0-51,0v25.5c40.9,0,86.7,0,127.6,0v-25.5
        c-12.7,0-38.3,0-51,0c0-92.8,0-187.8,0-280.6H102c0,22.7,0,53.8,0,76.5h25.5c0,22.7,0,53.8,0,76.5h25.5c0,22.7,0,53.8,0,76.5h25.5
        c0,22.7,0,53.8,0,76.5c12.7,0,38.3,0,51,0c0-22.7,0-53.8,0-76.5h-25.5V306.1z"/>
    <path d="M229.6,280.6c0,12.7,0,38.3,0,51h25.5c0-22.7,0-53.8,0-76.5h-25.5V280.6z"/>
    <path d="M255.1,204.1c0,12.7,0,38.3,0,51h25.5c0-22.7,0-53.8,0-76.5h-25.5V204.1z"/>
    <path d="M280.6,127.6c0,12.7,0,38.3,0,51h25.5c0-22.7,0-53.8,0-76.5h-25.5V127.6z"/>
    <path d="M382.7,331.7c0-101.4,0-204.8,0-306.1c12.7,0,38.3,0,51,0V0C392.8,0,347,0,306.1,0c0,32,0,70.1,0,102h25.5
        c0,92.8,0,187.8,0,280.6c-12.7,0-38.3,0-51,0v25.5c49.7,0,103.4,0,153.1,0v-25.5c-12.7,0-38.3,0-51,0
        C382.7,370,382.7,344.4,382.7,331.7z"/>
</g>
</svg>